<?xml version="1.0" encoding="UTF-8"?><svg xmlns="http://www.w3.org/2000/svg" xmlns:xlink="http://www.w3.org/1999/xlink" height="284.2" preserveAspectRatio="xMidYMid meet" version="1.0" viewBox="85.0 70.8 253.1 284.2" width="253.1" zoomAndPan="magnify"><g id="change1_1"><path d="M185.108,276.391L185.108,276.391c-0.286,2.815,0.118,5.664,0.843,8.399 c2.168,8.177,7.252,15.482,13.92,20.688c6.667,5.206,14.859,8.344,23.259,9.345c1.897,0.226,3.992,0.433,5.298,1.826 c2.109,2.25,0.79,5.973-1.111,8.402c-2.119,2.708-4.847,4.937-7.922,6.475c-3.202,1.602-7.112,2.777-8.58,6.042 c-1.357,3.018,0.136,6.724,2.675,8.846c2.539,2.122,5.879,2.987,9.13,3.605c10.83,2.059,22.527,1.922,32.289-3.198 c1.71-0.897,3.388-1.979,4.5-3.556s1.701-3.827,0.684-5.468c-5.067-8.176-19.866-5.269-19.604-6.016 c1.65-4.717,29.971-13.169,25.203-31.56c-4.768-18.391-21.343-43.001-47.643-47.734c-9.395-1.691-18.131,2.216-24.507,8.197 C189.209,264.747,185.718,270.387,185.108,276.391z" fill="#8c8abe"/></g><g id="change1_2"><path d="M303.765,201.538c-0.785,0.764-1.413,1.686-2.254,2.388c-0.725,0.605-1.586,1.027-2.456,1.395 c-6.539,2.765-14.215,2.71-20.727-0.112c-2.869-1.243-4.199-3.381-6.082-5.798c-2.275-2.921-4.334-6.014-6.121-9.258 c-1.855-3.369-3.116-6.948-5.333-10.091c-2.464-3.493-5.888-5.572-10.156-5.808c-4.394-0.243-8.961,0.675-12.539,3.237 c-3.578,2.562-6,6.919-5.602,11.302c0.305,3.359,2.149,6.373,4.159,9.081c2.984,4.022,6.435,7.675,10.015,11.178 c5.42,5.304,11.412,12.223,19.019,14.111c3.308,0.821,6.767,0.758,10.17,0.567c6.897-0.387,14.089-1.401,19.706-5.422 c4.74-3.394,10.073-11.225,16.122-5.956c0.745,0.649,1.386,1.425,2.211,1.968c0.825,0.543,1.928,0.82,2.801,0.357 c1.215-0.644,1.387-2.293,1.335-3.667c-0.134-3.545-0.892-7.368-3.546-9.722c-2.932-2.602-7.874-2.498-10.695,0.224 C303.783,201.521,303.774,201.53,303.765,201.538z" fill="#8c8abe"/></g><g id="change2_1"><path d="M211.966,84.816c-0.45-0.2-1.116-0.328-1.318,0.121c-0.067,0.149-0.053,0.321-0.036,0.483 c0.715,7.025,3.185,13.864,7.123,19.725c0,0,0,0,0,0c3.475,5.172,11.748,4.907,13.104-1.889 c1.127-5.645-4.464-10.526-8.633-13.226C218.983,87.944,215.463,86.373,211.966,84.816z" fill="#70c2b2"/></g><g id="change2_2"><path d="M196.849,114.856L196.849,114.856c-1.224-0.162-2.469-0.313-3.688-0.116 c-1.119,0.181-2.314,0.804-2.573,1.908c-0.201,0.856,0.221,1.724,0.652,2.49c3.283,5.829,7.919,10.89,13.439,14.671 c1.059,0.725,2.246,1.431,3.527,1.354c0.857-0.051,1.651-0.45,2.4-0.871c1.526-0.856,3.014-1.863,4.061-3.266 c2.017-2.704,3.448-10.018,0.224-12.49c-2.029-1.556-5.512-1.638-7.93-2.082C203.605,115.837,200.233,115.304,196.849,114.856z" fill="#70c2b2"/></g><g id="change2_3"><path d="M189.909,145.317L189.909,145.317c-1.758-0.084-3.929,0.067-4.673,1.662 c-0.395,0.846-0.216,1.871,0.237,2.688c0.454,0.816,1.15,1.466,1.839,2.097c2.941,2.697,5.942,5.328,9,7.891 c1.473,1.234,3.003,2.478,4.823,3.095c0.725,0.246,1.504,0.387,2.259,0.26c1.165-0.196,2.129-0.995,2.983-1.811 c1.039-0.993,2.021-2.072,2.695-3.341c1.308-2.461,2.67-10.272-0.947-11.56c-2.468-0.879-6.055-0.402-8.666-0.527 C196.276,145.62,193.092,145.469,189.909,145.317z" fill="#70c2b2"/></g><g id="change2_4"><path d="M194.211,188.567L194.211,188.567c-4.341-3.397-8.746-6.862-11.925-11.365 c-0.68-0.963-1.324-2.163-0.913-3.267c0.33-0.886,1.252-1.411,2.16-1.674c1.928-0.559,3.987-0.265,5.972,0.033 c4.305,0.646,8.611,1.292,12.916,1.938c1.018,0.153,2.083,0.324,2.906,0.942c1.758,1.318,1.65,3.952,1.267,6.116 c-0.403,2.278-0.926,4.562-1.957,6.633c-0.751,1.509-2.48,4.329-4.303,4.726C198.665,193.012,195.604,189.657,194.211,188.567z" fill="#70c2b2"/></g><g id="change2_5"><path d="M175.865,195.517c-0.496-0.712-0.994-1.692-0.461-2.377c0.229-0.295,0.596-0.441,0.949-0.566 c2.021-0.714,4.177-1.141,6.309-0.93c2.119,0.209,4.12,1.032,6.153,1.664c2.677,0.831,5.495,1.357,7.916,2.771 c2.421,1.414,4.421,4.028,4.077,6.81l0,0c-0.324,2.62-2.431,4.988-3.834,7.121c-1.215,1.847-2.535,3.886-4.941,4.154 c-2.197,0.245-3.895-1.183-5.139-2.823c-1.838-2.423-3.493-5.011-5.232-7.506C179.731,201.064,177.738,198.327,175.865,195.517z" fill="#70c2b2"/></g><g id="change2_6"><path d="M172.348,222.843c-1.755-3.289-3.825-6.409-6.174-9.303c-0.454-0.56-0.943-1.173-0.951-1.894 c-0.017-1.443,1.76-2.14,3.197-2.277c5.115-0.49,10.4,1.087,14.41,4.3c1.291,1.035,2.451,2.228,3.761,3.239 c1.657,1.279,3.773,2.679,3.653,4.769c-0.048,0.836-0.473,1.598-0.901,2.317l0,0c-1.279,2.145-6.596,11.746-9.46,10.658 c-1.864-0.708-3.411-3.983-4.326-5.612C174.418,227.011,173.443,224.895,172.348,222.843z" fill="#70c2b2"/></g><g id="change2_7"><path d="M155.902,226.41L155.902,226.41c-0.078-0.21-0.158-0.432-0.12-0.653c0.074-0.436,0.551-0.667,0.979-0.781 c1.343-0.357,2.767-0.246,4.136-0.005c6.047,1.065,11.59,4.734,14.933,9.884c0.92,1.418,1.703,3.089,1.375,4.748 c-0.749,3.787-6.658,8.535-10.605,7.998c-4.499-0.612-5.741-7.886-7-11.266C158.367,233.027,157.135,229.718,155.902,226.41z" fill="#70c2b2"/></g><g id="change2_8"><path d="M141.057,238.463c-0.091-0.633-0.164-1.349,0.238-1.846c0.549-0.679,1.614-0.533,2.441-0.252 c6.116,2.085,10.165,7.811,13.401,13.404c0.721,1.247,1.441,2.749,0.854,4.065c-0.497,1.113-1.75,1.649-2.906,2.038l0,0 c-2.485,0.837-11.638,4.444-12.432,0.272c-0.541-2.839-0.309-6.021-0.57-8.914C141.817,244.299,141.475,241.376,141.057,238.463z" fill="#70c2b2"/></g><g id="change2_9"><path d="M124.618,245.678L124.618,245.678c0.41-1.354,1.114-2.675,2.264-3.499c0.267-0.192,0.596-0.36,0.913-0.272 c0.219,0.061,0.387,0.234,0.541,0.402c3.675,3.981,6.597,8.837,7.426,14.191c0.223,1.442,0.25,3.054-0.652,4.2 c-0.915,1.162-2.522,1.507-3.999,1.575c-1.994,0.092-4.148-0.134-6.029-0.836c-1.836-0.686-1.621-1.43-1.347-3.169 C124.39,254.11,123.382,249.755,124.618,245.678z" fill="#70c2b2"/></g><g id="change2_10"><path d="M112.761,243.563L112.761,243.563c0.059-0.15,0.125-0.308,0.256-0.4c0.324-0.228,0.749,0.084,1.01,0.383 c2.8,3.21,4.375,7.463,4.341,11.722c-0.008,1.015-0.109,2.05-0.519,2.979c-0.409,0.929-1.167,1.745-2.142,2.026 c-0.808,0.233-1.674,0.083-2.492-0.111c-1.604-0.381-3.18-0.927-4.665-1.645c-1.077-0.521-1.189-0.418-1.117-1.47 c0.056-0.825,0.773-1.951,1.081-2.731C109.93,250.73,111.345,247.147,112.761,243.563z" fill="#70c2b2"/></g><g id="change2_11"><path d="M95.731,250.473c0.82-2.251,1.641-4.502,2.461-6.754c0.144-0.395,0.35-0.847,0.762-0.933 c0.213-0.045,0.435,0.025,0.631,0.121c1.201,0.587,1.699,2.015,2,3.317c0.559,2.419,0.836,4.906,0.764,7.388 c-0.02,0.681-0.07,1.379-0.356,1.997c-0.286,0.618-0.858,1.146-1.537,1.198c0,0,0,0,0,0c-0.956,0.072-1.558-0.706-2.31-1.136 c-0.738-0.423-1.847-0.449-2.486-0.952C94.363,253.699,95.268,251.743,95.731,250.473z" fill="#70c2b2"/></g><g id="change3_1"><path d="M206.699,316.366c17.793-0.75,36.068-5.453,49.578-17.057c16.067-13.802,23.278-35.497,25.322-56.58 c1.835-18.916,1.524-39.217,0.072-58.162c-1.165-15.205,22.561-5.178,35.396-10.581c5.653-2.38,13.348-5.378,17.288-14.15 c3.318-7.387,3.717-23.529,1.652-31.359c-3.367-12.762-13.468-9.654-26.105-24.575c-19.556-23.09-60.946-25.422-82.777-5.108 c-7.078,6.586-11.387,15.615-14.549,24.751c-6.156,17.786-6.524,38.458-11.63,56.928c-5.284,19.114-12.874,37.822-24.997,53.675 c-5.459,7.138-11.911,13.724-19.861,17.912c-17.862,9.408-40.276,5.68-58.78,0.253c-6.776-1.988-12.327-5.019-7.648,3.614 c4.349,8.022,11.413,15.403,17.891,21.73C133.606,303.102,170.188,317.906,206.699,316.366z" fill="#a09dc7"/></g><g id="change3_2"><path d="M317.586,116.462c1.608,0.216,3.244,0.227,4.855,0.034c2.569-0.308,5.259-1.12,7.665-0.167 c2.071,0.82,3.482,2.84,4.101,4.98c0.619,2.139,0.558,4.41,0.442,6.635c-0.061,1.168-0.177,2.437-0.975,3.292 c-0.809,0.866-2.088,1.062-3.265,1.199c-1.471,0.171-3.016,0.32-4.384-0.247c-1.126-0.467-2.008-1.371-2.796-2.301 c-2.319-2.733-4.18-5.882-5.359-9.267L317.586,116.462z" fill="#a09dc7"/></g><g id="change4_1"><path d="M321.45,122.375c-0.561,0.972-0.606,2.146-0.637,3.268c-0.019,0.682-0.036,1.377,0.159,2.031 c0.185,0.619,0.555,1.171,0.998,1.642c1.241,1.321,3.075,2.026,4.887,2.013c0.918-0.007,1.876-0.207,2.573-0.804 c1.005-0.861,1.233-2.307,1.326-3.627c0.061-0.865,0.082-1.781-0.328-2.545c-0.489-0.91-1.534-1.314-2.411-1.859 C324.992,120.613,322.011,121.403,321.45,122.375z" fill="#5a588b"/></g><g id="change5_1"><path d="M252.258,141.268c2.845-3.143,7.226-4.826,11.444-4.397c4.218,0.429,8.17,2.961,10.323,6.613 c0.953,1.616,1.569,3.578,1.007,5.367c-0.297,0.944-0.897,1.762-1.553,2.504c-3.535,4-9.219,6.186-14.419,4.977 c-5.2-1.209-9.402-4.607-8.535-10.334L252.258,141.268z" fill="#f3af9d"/></g><g id="change6_1"><path d="M258.954,128.547c0,0,0,0-0.001,0c-3.304,0-6.63-1.438-9.125-3.946c-0.321-0.322-0.319-0.843,0.003-1.164 c0.323-0.321,0.844-0.319,1.164,0.003c2.188,2.199,5.088,3.46,7.958,3.46c0,0,0.001,0,0.001,0c4.352,0,7.807-1.264,10.27-3.757 c3.2-3.239,4.008-7.906,3.98-10.153c-0.005-0.455,0.359-0.827,0.813-0.833c0.003,0,0.007,0,0.01,0 c0.45,0,0.817,0.362,0.823,0.813c0.008,0.689-0.046,6.867-4.456,11.33C267.611,127.118,263.761,128.546,258.954,128.547z" fill="#3c395c"/></g><g id="change7_1"><path d="M287.518,148.44c-0.019,2.195-0.038,4.396,0.223,6.575c0.114,0.949,0.295,1.928,0.851,2.706 c0.145,0.203,0.326,0.397,0.564,0.468c0.283,0.084,0.584-0.019,0.857-0.133c1.819-0.758,3.424-2.023,4.587-3.614 c0.36-0.492,0.688-1.137,0.42-1.685c-0.167-0.341-0.521-0.541-0.855-0.72c-1.574-0.846-2.927-2.564-4.714-2.564L287.518,148.44z" fill="#c7e4dd"/></g><g id="change7_2"><path d="M296.195,153.047c0.456,2.147,0.915,4.3,1.642,6.371c0.317,0.902,0.706,1.818,1.417,2.458 c0.185,0.166,0.404,0.317,0.652,0.335c0.294,0.021,0.566-0.145,0.807-0.315c1.612-1.134,2.905-2.716,3.696-4.521 c0.245-0.558,0.425-1.259,0.045-1.736c-0.236-0.297-0.626-0.415-0.991-0.518c-1.72-0.485-3.413-1.869-5.157-1.482 L296.195,153.047z" fill="#c7e4dd"/></g><g id="change7_3"><path d="M305.963,156.112c0.567,2.12,1.137,4.247,1.971,6.277c0.363,0.884,0.799,1.779,1.543,2.381 c0.193,0.157,0.42,0.295,0.668,0.3c0.295,0.006,0.558-0.175,0.79-0.357c1.551-1.217,2.76-2.864,3.456-4.707 c0.215-0.57,0.359-1.279-0.045-1.736c-0.251-0.284-0.647-0.382-1.017-0.466c-1.743-0.395-3.505-1.689-5.228-1.212 L305.963,156.112z" fill="#c7e4dd"/></g><g id="change7_4"><path d="M316.085,158.756c0.77,2.055,1.544,4.116,2.57,6.056c0.447,0.845,0.968,1.693,1.766,2.22 c0.208,0.137,0.446,0.253,0.695,0.234c0.294-0.023,0.538-0.228,0.752-0.432c1.425-1.361,2.469-3.118,2.983-5.02 c0.159-0.588,0.233-1.308-0.213-1.723c-0.278-0.258-0.681-0.318-1.057-0.365c-1.773-0.224-3.653-1.341-5.32-0.699 L316.085,158.756z" fill="#c7e4dd"/></g><g id="change7_5"><path d="M325.333,160.229c1.274,1.787,2.552,3.58,4.044,5.189c0.65,0.701,1.372,1.387,2.279,1.69 c0.236,0.079,0.496,0.13,0.731,0.047c0.278-0.098,0.462-0.359,0.615-0.611c1.026-1.683,1.582-3.649,1.588-5.62 c0.002-0.61-0.111-1.324-0.65-1.61c-0.335-0.178-0.739-0.132-1.115-0.08c-1.771,0.241-3.875-0.355-5.321,0.695L325.333,160.229z" fill="#c7e4dd"/></g><g id="change6_2"><path d="M325.743,160.757c-1.241,0-2.412-0.056-3.545-0.166c-3.474-0.337-6.868-1.233-10.15-2.099 c-0.941-0.248-1.884-0.488-2.828-0.728c-1.87-0.475-3.803-0.967-5.693-1.52c-7.48-2.192-11.545-4.61-14.514-6.375 c-2.34-1.392-3.886-2.311-5.828-2.311c-0.455,0-0.823-0.369-0.823-0.823s0.369-0.823,0.823-0.823c2.395,0,4.188,1.067,6.67,2.543 c2.893,1.721,6.854,4.077,14.135,6.21c1.861,0.545,3.78,1.033,5.636,1.504c0.948,0.241,1.896,0.482,2.842,0.731 c3.219,0.849,6.548,1.728,9.89,2.052c2.568,0.25,5.351,0.205,8.76-0.143c1.147-0.117,2.361-0.264,3.473-0.665 c0.425-0.153,0.898,0.067,1.053,0.496c0.154,0.427-0.068,0.899-0.496,1.053c-1.287,0.464-2.614,0.627-3.863,0.754 C329.254,160.654,327.434,160.757,325.743,160.757z" fill="#3c395c"/></g><g id="change2_14"><path d="M284.06,78.84c0.414,2.895,0.733,5.803,0.956,8.719c0.117,1.535-0.056,3.497-1.513,3.996 c-0.621,0.213-1.307,0.067-1.927-0.149c-1.839-0.643-3.481-1.954-4.313-3.716c-0.832-1.762-0.758-3.96,0.358-5.556l5.377-4.963" fill="#70c2b2"/></g><g id="change2_12"><path d="M264.811,72.516L264.811,72.516c-0.269-0.53-0.59-1.093-1.14-1.318c-1.086-0.445-2.148,0.679-2.7,1.715 c-2.019,3.793-2.564,8.257-2.068,12.525c0.213,1.836,0.654,3.738,1.877,5.124c1.215,1.377,3.189,2.072,4.979,1.661 C273.703,90.396,266.904,76.633,264.811,72.516z" fill="#70c2b2"/></g><g id="change2_13"><path d="M245.701,82.725c-1.302-1.751-2.668-3.486-4.386-4.832c-1.717-1.346-3.838-2.284-6.019-2.217 c-0.204,0.006-0.418,0.024-0.59,0.136c-0.34,0.222-0.373,0.699-0.363,1.105c0.124,5.348,1.31,10.668,3.47,15.562 c0.878,1.99,2.257,4.153,4.423,4.363c1.025,0.099,2.029-0.276,2.99-0.645l0,0c1.984-0.762,6.62-2.242,6.057-5.061 c-0.286-1.43-1.738-2.957-2.543-4.14C247.757,85.552,246.744,84.128,245.701,82.725z" fill="#70c2b2"/></g><g id="change8_2"><path d="M294.751,213.688c-0.785,0.764-1.413,1.686-2.254,2.388c-0.726,0.605-1.586,1.027-2.456,1.395 c-6.539,2.765-14.215,2.71-20.727-0.112c-2.869-1.243-4.199-3.381-6.082-5.798c-2.275-2.921-4.334-6.014-6.121-9.258 c-1.855-3.369-3.116-6.948-5.333-10.091c-2.464-3.493-5.888-5.572-10.156-5.808c-4.394-0.243-8.961,0.675-12.539,3.237 c-3.578,2.562-6,6.919-5.603,11.302c0.305,3.359,2.149,6.373,4.159,9.081c2.984,4.022,6.436,7.675,10.015,11.178 c5.42,5.304,11.412,12.223,19.019,14.111c3.308,0.821,6.767,0.758,10.17,0.567c6.897-0.387,14.089-1.401,19.706-5.422 c4.74-3.394,10.073-11.225,16.122-5.956c0.745,0.649,1.386,1.425,2.211,1.968s1.928,0.82,2.801,0.357 c1.215-0.644,1.387-2.293,1.335-3.667c-0.134-3.545-0.892-7.368-3.546-9.722c-2.932-2.601-7.874-2.498-10.695,0.224 C294.769,213.671,294.76,213.68,294.751,213.688z" fill="#b4b0d0"/></g><g id="change8_1"><path d="M151.328,279.232L151.328,279.232c-0.286,2.815,0.118,5.664,0.843,8.399 c2.168,8.177,7.252,15.482,13.92,20.689c6.667,5.206,14.859,8.344,23.259,9.345c1.897,0.226,3.992,0.433,5.298,1.826 c2.11,2.25,0.79,5.973-1.111,8.401c-2.119,2.708-4.847,4.937-7.922,6.475c-3.202,1.602-7.112,2.777-8.58,6.042 c-1.357,3.018,0.136,6.724,2.675,8.846c2.539,2.122,5.879,2.987,9.13,3.605c10.83,2.059,22.527,1.922,32.289-3.198 c1.71-0.897,3.388-1.979,4.5-3.556c1.113-1.577,1.701-3.827,0.684-5.468c-5.067-8.176-19.866-5.269-19.604-6.016 c1.65-4.717,29.971-13.169,25.203-31.56c-4.768-18.391-21.343-43.001-47.643-47.734c-9.395-1.691-18.131,2.216-24.507,8.197 C155.429,267.589,151.938,273.228,151.328,279.232z" fill="#b4b0d0"/></g></svg>